<?xml version="1.0" encoding="utf-8"?>
<!-- Generator: Adobe Illustrator 16.0.0, SVG Export Plug-In . SVG Version: 6.00 Build 0)  -->
<!DOCTYPE svg PUBLIC "-//W3C//DTD SVG 1.1//EN" "http://www.w3.org/Graphics/SVG/1.1/DTD/svg11.dtd">
<svg version="1.1" id="Слой_1" xmlns="http://www.w3.org/2000/svg" xmlns:xlink="http://www.w3.org/1999/xlink" x="0px" y="0px"
	 width="100px" height="97px" viewBox="0 0 512 496" enable-background="new 0 0 512 496" xml:space="preserve">
<path fill="#8EC640" d="M256.5,113.057c-60.753,0-110.18,49.416-110.18,110.154c0,60.738,49.427,110.154,110.18,110.154
	s110.18-49.416,110.18-110.154C366.68,162.472,317.253,113.057,256.5,113.057z M256.5,312.871c-49.451,0-89.682-40.22-89.682-89.66
	c0-49.44,40.23-89.66,89.682-89.66s89.682,40.22,89.682,89.66C346.182,272.65,305.951,312.871,256.5,312.871z"/>
<path fill="#8EC640" d="M283.148,191.446c5.659,0,10.249-4.589,10.249-10.247c0-5.658-4.59-10.247-10.249-10.247h-53.296
	c-5.659,0-10.25,4.589-10.25,10.247c0,5.658,4.59,10.247,10.25,10.247h16.398v63.53h-16.398c-5.659,0-10.25,4.589-10.25,10.247
	c0,5.658,4.59,10.247,10.25,10.247h53.296c5.659,0,10.249-4.589,10.249-10.247c0-5.658-4.59-10.247-10.249-10.247H266.75v-63.53
	H283.148z"/>
<path fill="#8EC640" d="M256.5,39.964c5.659,0,10.25-4.589,10.25-10.247v-19.47C266.75,4.589,262.159,0,256.5,0
	s-10.25,4.589-10.25,10.247v19.469C246.25,35.375,250.84,39.964,256.5,39.964z"/>
<path fill="#8EC640" d="M439.792,223.211c0,5.658,4.59,10.247,10.25,10.247h19.473c5.66,0,10.25-4.589,10.25-10.247
	c0-5.658-4.59-10.247-10.25-10.247h-19.473C444.381,212.964,439.792,217.552,439.792,223.211z"/>
<path fill="#8EC640" d="M43.485,233.458h19.473c5.66,0,10.25-4.589,10.25-10.247c0-5.658-4.59-10.247-10.25-10.247H43.485
	c-5.659,0-10.25,4.589-10.25,10.247C33.236,228.869,37.825,233.458,43.485,233.458z"/>
<path fill="#8EC640" d="M348.146,64.513c1.615,0.931,3.376,1.375,5.114,1.375c3.542,0,6.988-1.838,8.886-5.125l9.737-16.861
	c2.831-4.901,1.151-11.168-3.75-13.997c-4.903-2.83-11.171-1.15-14,3.75l-9.737,16.861
	C341.564,55.417,343.244,61.685,348.146,64.513z"/>
<path fill="#8EC640" d="M66.899,125.603l16.865,9.735c1.614,0.931,3.375,1.375,5.114,1.375c3.542,0,6.987-1.838,8.886-5.125
	c2.831-4.901,1.151-11.168-3.751-13.997l-16.865-9.735c-4.903-2.83-11.171-1.15-14,3.75
	C60.317,116.506,61.996,122.772,66.899,125.603z"/>
<path fill="#8EC640" d="M424.122,136.711c1.738,0,3.5-0.444,5.114-1.375l16.865-9.735c4.902-2.829,6.583-9.096,3.751-13.997
	c-2.83-4.9-9.095-6.58-14-3.75l-16.865,9.735c-4.902,2.829-6.583,9.096-3.751,13.997
	C417.135,134.874,420.579,136.711,424.122,136.711z"/>
<path fill="#8EC640" d="M150.854,60.762c1.899,3.287,5.343,5.126,8.886,5.126c1.739,0,3.5-0.444,5.114-1.375
	c4.902-2.829,6.583-9.096,3.751-13.997l-9.737-16.861c-2.831-4.899-9.096-6.581-14-3.75c-4.902,2.829-6.583,9.096-3.751,13.997
	L150.854,60.762z"/>
<path fill="#8EC640" d="M511.664,427.728c-7.405-16.521-18.867-17.893-28.078-18.995c-5.857-0.702-11.39-1.364-18.096-5.628
	c-5.205-3.309-5.784-6.177-6.689-13.983c-0.885-7.622-2.098-18.06-11.806-27.766c-10.057-10.054-19.395-11.314-26.896-12.325
	c-6.007-0.811-9.975-1.345-15.137-6.509c-5.164-5.163-5.701-9.132-6.516-15.139c-0.696-5.149-1.51-11.163-5.209-17.68l0.588-0.261
	c4.055-1.805,6.487-6.013,6.027-10.427l-4.02-38.474l22.703-31.318c2.602-3.587,2.602-8.438,0-12.026l-22.703-31.318l4.02-38.472
	c0.46-4.414-1.973-8.623-6.027-10.427l-35.347-15.725l-15.728-35.341c-1.806-4.054-5.999-6.484-10.43-6.026l-38.482,4.019
	l-31.325-22.698c-3.587-2.6-8.441-2.6-12.029,0l-31.325,22.698l-38.482-4.019c-4.414-0.456-8.625,1.972-10.429,6.026l-15.729,35.339
	l-35.347,15.724c-4.055,1.805-6.488,6.013-6.028,10.427l4.02,38.474l-22.703,31.318c-2.602,3.587-2.602,8.438,0,12.026
	l22.703,31.318l-4.02,38.473c-0.46,4.414,1.972,8.623,6.028,10.427l0.588,0.262c-3.698,6.518-4.513,12.532-5.209,17.681
	c-0.814,6.007-1.352,9.975-6.518,15.142c-5.157,5.159-9.126,5.695-15.135,6.506c-7.501,1.011-16.839,2.272-26.896,12.325
	c-9.707,9.706-10.919,20.143-11.805,27.765c-0.907,7.807-1.485,10.675-6.689,13.984c-6.707,4.264-12.239,4.927-18.096,5.628
	c-9.209,1.102-20.672,2.474-28.077,18.995c-1.336,2.983-1.17,6.425,0.449,9.264c1.618,2.839,4.496,4.737,7.746,5.106l56.029,6.379
	l-2.974,36.443c-0.295,3.611,1.339,7.109,4.299,9.201c1.759,1.244,3.831,1.88,5.917,1.88c1.422,0,2.852-0.296,4.192-0.897
	c6.566-2.943,11.066-3.823,15.417-4.675c8.079-1.581,15.709-3.074,27.22-14.581c10.056-10.054,11.319-19.385,12.333-26.883
	c0.814-6.008,1.352-9.976,6.518-15.143c5.159-5.161,9.129-5.698,15.14-6.51c7.5-1.012,16.835-2.274,26.891-12.321
	c10.056-10.054,11.316-19.391,12.329-26.892c0.812-6.009,1.346-9.978,6.51-15.14c4.252-4.25,8.945-4.984,16.246-5.826
	c2.698-0.31,5.449-0.635,8.23-1.241l26.658,19.317c1.793,1.3,3.905,1.95,6.014,1.95s4.221-0.651,6.015-1.95l26.658-19.317
	c2.781,0.605,5.532,0.929,8.23,1.241c7.302,0.841,11.993,1.574,16.246,5.826c5.163,5.161,5.699,9.131,6.51,15.14
	c1.012,7.501,2.272,16.838,12.332,26.894c10.055,10.046,19.389,11.307,26.888,12.319c6.009,0.812,9.979,1.347,15.141,6.512
	c5.164,5.163,5.701,9.132,6.516,15.14c1.013,7.498,2.277,16.83,12.333,26.883c11.51,11.507,19.142,13.001,27.221,14.581
	c4.352,0.852,8.851,1.732,15.417,4.675c1.34,0.6,2.77,0.897,4.192,0.897c2.085,0,4.159-0.636,5.917-1.88
	c2.96-2.091,4.594-5.589,4.299-9.201l-2.975-36.443l56.029-6.379c3.249-0.369,6.127-2.267,7.746-5.106
	C512.834,434.153,513,430.711,511.664,427.728z M178.415,366.514c-4.284,6.967-5.151,13.392-5.888,18.846
	c-0.811,6.009-1.345,9.979-6.506,15.138c-5.162,5.157-9.133,5.694-15.144,6.506c-7.503,1.013-16.841,2.276-26.891,12.33
	c-10.057,10.054-11.32,19.384-12.334,26.882c-0.813,6.008-1.35,9.976-6.515,15.14c-7.089,7.088-10.089,7.675-16.663,8.961
	c-1.307,0.256-2.701,0.529-4.2,0.862l2.525-30.927c0.45-5.514-3.559-10.389-9.056-11.014l-30.245-3.443
	c3.452-1.221,7.141-2.935,11.012-5.396c13.705-8.715,15.062-20.389,16.052-28.914c0.741-6.373,1.275-10.976,5.938-15.638
	c5.162-5.161,9.132-5.697,15.141-6.508c7.503-1.011,16.84-2.272,26.89-12.326c10.057-10.053,11.32-19.385,12.334-26.883
	c0.641-4.744,1.112-8.216,3.823-12.008l15.831,7.043l15.728,35.338c1.495,3.357,4.629,5.594,8.177,6.007L178.415,366.514z
	 M327.049,345.375l-34.982-3.653c-2.516-0.261-5.034,0.413-7.08,1.896L256.5,364.258l-28.487-20.642
	c-1.756-1.273-3.863-1.95-6.015-1.95c-0.355,0-0.709,0.018-1.065,0.055l-34.982,3.653l-14.302-32.137
	c-1.032-2.315-2.882-4.165-5.198-5.196l-32.144-14.299l3.654-34.974c0.262-2.513-0.412-5.033-1.896-7.078l-20.648-28.48
	l20.648-28.481c1.483-2.044,2.158-4.565,1.896-7.078l-3.654-34.974l32.144-14.299c2.316-1.031,4.166-2.881,5.198-5.196
	l14.302-32.137l34.982,3.653c2.513,0.262,5.034-0.413,7.08-1.896L256.5,82.163l28.488,20.643c2.045,1.483,4.567,2.157,7.08,1.896
	l34.982-3.653l14.302,32.137c1.031,2.315,2.882,4.165,5.197,5.196l32.144,14.299l-3.654,34.974
	c-0.262,2.513,0.412,5.033,1.896,7.078l20.648,28.481l-20.648,28.48c-1.483,2.044-2.157,4.565-1.896,7.078l3.654,34.974
	l-32.144,14.299c-2.315,1.031-4.166,2.881-5.197,5.196L327.049,345.375z M435.258,429.239c-5.498,0.625-9.506,5.501-9.056,11.014
	l2.524,30.927c-1.5-0.333-2.892-0.606-4.2-0.862c-6.572-1.286-9.573-1.873-16.663-8.961c-5.164-5.163-5.701-9.132-6.515-15.14
	c-1.014-7.498-2.278-16.83-12.332-26.879c-10.054-10.057-19.391-11.32-26.893-12.333c-6.011-0.812-9.98-1.347-15.141-6.504
	c-5.162-5.161-5.698-9.131-6.51-15.14c-0.737-5.454-1.603-11.878-5.888-18.845l-0.012-0.005c3.542-0.414,6.684-2.65,8.178-6.006
	l15.729-35.339l15.831-7.042c2.71,3.792,3.182,7.265,3.823,12.008c1.015,7.498,2.279,16.831,12.332,26.879
	c10.053,10.057,19.389,11.318,26.892,12.329c6.009,0.81,9.978,1.345,15.142,6.508c4.664,4.662,5.198,9.266,5.938,15.638
	c0.99,8.524,2.346,20.199,16.051,28.914c3.871,2.46,7.56,4.174,11.012,5.396L435.258,429.239z"/>
</svg>
