<?xml version="1.0" encoding="iso-8859-1"?>
<!-- Generator: Adobe Illustrator 19.0.0, SVG Export Plug-In . SVG Version: 6.00 Build 0)  -->
<svg version="1.1" id="Layer_1" xmlns="http://www.w3.org/2000/svg" xmlns:xlink="http://www.w3.org/1999/xlink" x="0px" y="0px" fill="#8DC63F"
	 viewBox="0 0 512 512" style="enable-background:new 0 0 512 512;" width="100px" height="100px" xml:space="preserve">
<g>
	<g>
		<g>
			<path d="M366.933,119.467h102.4c4.713,0,8.533-3.82,8.533-8.533V42.667c0-4.713-3.82-8.533-8.533-8.533h-102.4
				c-4.713,0-8.533,3.82-8.533,8.533v68.267C358.4,115.646,362.221,119.467,366.933,119.467z M375.467,51.2H460.8v51.2h-85.333V51.2
				z"/>
			<path d="M366.933,179.2c4.713,0,8.533-3.82,8.533-8.533v-25.6c0-4.713-3.82-8.533-8.533-8.533s-8.533,3.82-8.533,8.533v25.6
				C358.4,175.38,362.221,179.2,366.933,179.2z"/>
			<path d="M469.333,136.533c-4.713,0-8.533,3.82-8.533,8.533v25.6c0,4.713,3.82,8.533,8.533,8.533s8.533-3.82,8.533-8.533v-25.6
				C477.867,140.354,474.046,136.533,469.333,136.533z"/>
			<path d="M435.2,179.2c4.713,0,8.533-3.82,8.533-8.533v-25.6c0-4.713-3.82-8.533-8.533-8.533s-8.533,3.82-8.533,8.533v25.6
				C426.667,175.38,430.487,179.2,435.2,179.2z"/>
			<path d="M392.533,145.067v25.6c0,4.713,3.821,8.533,8.533,8.533s8.533-3.82,8.533-8.533v-25.6c0-4.713-3.82-8.533-8.533-8.533
				S392.533,140.354,392.533,145.067z"/>
			<path d="M366.933,477.867c4.713,0,8.533-3.82,8.533-8.533v-128c0-4.713-3.82-8.533-8.533-8.533s-8.533,3.821-8.533,8.533v128
				C358.4,474.046,362.221,477.867,366.933,477.867z"/>
			<path d="M469.333,332.8c-4.713,0-8.533,3.821-8.533,8.533v128c0,4.713,3.82,8.533,8.533,8.533s8.533-3.82,8.533-8.533v-128
				C477.867,336.621,474.046,332.8,469.333,332.8z"/>
			<path d="M435.2,332.8c-4.713,0-8.533,3.821-8.533,8.533v128c0,4.713,3.82,8.533,8.533,8.533s8.533-3.82,8.533-8.533v-128
				C443.733,336.621,439.913,332.8,435.2,332.8z"/>
			<path d="M401.067,332.8c-4.713,0-8.533,3.821-8.533,8.533v128c0,4.713,3.821,8.533,8.533,8.533s8.533-3.82,8.533-8.533v-128
				C409.6,336.621,405.78,332.8,401.067,332.8z"/>
			<path d="M366.933,247.467h34.133c4.713,0,8.533-3.82,8.533-8.533V204.8c0-4.713-3.82-8.533-8.533-8.533h-34.133
				c-4.713,0-8.533,3.82-8.533,8.533v34.133C358.4,243.646,362.221,247.467,366.933,247.467z M375.467,213.333h17.067V230.4h-17.067
				V213.333z"/>
			<path d="M366.933,315.733h102.4c4.713,0,8.533-3.82,8.533-8.533v-34.133c0-4.713-3.82-8.533-8.533-8.533h-102.4
				c-4.713,0-8.533,3.821-8.533,8.533V307.2C358.4,311.913,362.221,315.733,366.933,315.733z M375.467,281.6H460.8v17.067h-85.333
				V281.6z"/>
			<path d="M469.333,196.267H435.2c-4.713,0-8.533,3.82-8.533,8.533v34.133c0,4.713,3.82,8.533,8.533,8.533h34.133
				c4.713,0,8.533-3.82,8.533-8.533V204.8C477.867,200.087,474.046,196.267,469.333,196.267z M460.8,230.4h-17.067v-17.067H460.8
				V230.4z"/>
			<path d="M68.267,307.2c-14.142,0-25.6,11.458-25.6,25.6c0,14.142,11.458,25.6,25.6,25.6s25.6-11.458,25.6-25.6
				C93.867,318.658,82.409,307.2,68.267,307.2z M68.267,341.333c-4.716,0-8.533-3.817-8.533-8.533c0-4.716,3.817-8.533,8.533-8.533
				s8.533,3.817,8.533,8.533C76.8,337.517,72.983,341.333,68.267,341.333z"/>
			<path d="M136.533,307.2c-14.142,0-25.6,11.458-25.6,25.6c0,14.142,11.458,25.6,25.6,25.6s25.6-11.458,25.6-25.6
				C162.133,318.658,150.675,307.2,136.533,307.2z M136.533,341.333c-4.716,0-8.533-3.817-8.533-8.533
				c0-4.716,3.817-8.533,8.533-8.533s8.533,3.817,8.533,8.533C145.067,337.517,141.25,341.333,136.533,341.333z"/>
			<path d="M204.8,307.2c-14.142,0-25.6,11.458-25.6,25.6c0,14.142,11.458,25.6,25.6,25.6s25.6-11.458,25.6-25.6
				C230.4,318.658,218.942,307.2,204.8,307.2z M204.8,341.333c-4.716,0-8.533-3.817-8.533-8.533c0-4.716,3.817-8.533,8.533-8.533
				c4.717,0,8.533,3.817,8.533,8.533C213.333,337.517,209.517,341.333,204.8,341.333z"/>
			<path d="M273.067,307.2c-14.142,0-25.6,11.458-25.6,25.6c0,14.142,11.458,25.6,25.6,25.6c14.142,0,25.6-11.458,25.6-25.6
				C298.667,318.658,287.209,307.2,273.067,307.2z M273.067,341.333c-4.717,0-8.533-3.817-8.533-8.533
				c0-4.716,3.817-8.533,8.533-8.533c4.716,0,8.533,3.817,8.533,8.533C281.6,337.517,277.783,341.333,273.067,341.333z"/>
			<path d="M503.467,0H332.8c-4.713,0-8.533,3.82-8.533,8.533v264.533h-25.6v-85.461c0-9.355-7.584-16.939-16.939-16.939h-17.195
				h-51.2h-17.195c-9.355,0-16.939,7.584-16.939,16.939v85.461h-25.6v-85.461c0-9.355-7.584-16.939-16.939-16.939h-17.195h-51.2
				H51.072c-9.355,0-16.939,7.584-16.939,16.939v91.217C13.953,288.409,0,308.971,0,332.8c0,20.406,10.237,38.412,25.849,49.187
				c-0.157,0.647-0.249,1.318-0.249,2.013v119.467c0,4.713,3.821,8.533,8.533,8.533h51.2c4.713,0,8.533-3.82,8.533-8.533V392.533
				h230.4v110.933c0,4.713,3.821,8.533,8.533,8.533h170.667c4.713,0,8.533-3.82,8.533-8.533V8.533C512,3.82,508.18,0,503.467,0z
				 M247.467,187.733V204.8H230.4v-17.067H247.467z M196.267,187.733h17.067v34.133h51.2v-34.133H281.6v85.333h-85.333V187.733z
				 M102.4,187.733V204.8H85.333v-17.067H102.4z M51.2,273.067v-85.333h17.067v34.133h51.2v-34.133h17.067v85.333h-76.8H51.2z
				 M76.8,494.933H42.667v-102.4h17.067H76.8V494.933z M85.333,375.467h-25.6c-23.567,0-42.667-19.1-42.667-42.667
				c0-23.567,19.1-42.667,42.667-42.667H153.6h25.6h119.467h25.6v85.333H85.333z M494.933,494.933h-153.6V384V281.6V17.067h153.6
				V494.933z"/>
		</g>
	</g>
</g>
<g>
</g>
<g>
</g>
<g>
</g>
<g>
</g>
<g>
</g>
<g>
</g>
<g>
</g>
<g>
</g>
<g>
</g>
<g>
</g>
<g>
</g>
<g>
</g>
<g>
</g>
<g>
</g>
<g>
</g>
</svg>
