<?xml version="1.0" encoding="utf-8"?>
<!-- Generator: Adobe Illustrator 16.0.0, SVG Export Plug-In . SVG Version: 6.00 Build 0)  -->
<!DOCTYPE svg PUBLIC "-//W3C//DTD SVG 1.1//EN" "http://www.w3.org/Graphics/SVG/1.1/DTD/svg11.dtd">
<svg version="1.1" id="Слой_1" xmlns="http://www.w3.org/2000/svg" xmlns:xlink="http://www.w3.org/1999/xlink" x="0px" y="0px"
	 width="186px" height="186px" viewBox="0 0 186 186" enable-background="new 0 0 186 186" xml:space="preserve">
<g>
	<image overflow="visible" opacity="0.3" width="186" height="186" xlink:href="D69DD675.png" >
	</image>
	<path fill="#00AEEF" d="M161.086,85.528c0,41.713-33.815,75.528-75.528,75.528s-75.529-33.815-75.529-75.528
		s33.816-75.527,75.529-75.527S161.086,43.815,161.086,85.528"/>
	<circle fill="none" stroke="#FFFFFF" stroke-width="4" stroke-miterlimit="10" cx="85.557" cy="85.528" r="75.529"/>
	<path fill="none" stroke="#FFFFFF" stroke-width="5" stroke-miterlimit="10" d="M138.111,108.128L37.063,120.12
		c-2.533,0.301-4.833-1.51-5.134-4.045l-2.97-25.029c-0.301-2.533,1.509-4.832,4.045-5.133L134.05,73.919
		c2.536-0.301,4.834,1.51,5.135,4.045l2.972,25.029C142.457,105.527,140.645,107.826,138.111,108.128z"/>
	<polyline fill="none" stroke="#FFFFFF" stroke-width="5" stroke-linejoin="round" stroke-miterlimit="10" points="68.805,81.663 
		79.579,50.903 98.248,78.168 	"/>
	<path fill="#FFFFFF" d="M52.151,94.202c0.932-0.111,1.796-0.055,2.593,0.167c0.798,0.221,1.5,0.587,2.109,1.093
		c0.611,0.508,1.111,1.146,1.5,1.92c0.392,0.771,0.646,1.659,0.766,2.66c0.115,0.979,0.076,1.889-0.115,2.729
		c-0.194,0.842-0.524,1.584-0.993,2.226c-0.465,0.642-1.062,1.165-1.783,1.573c-0.723,0.408-1.561,0.67-2.515,0.783
		c-0.932,0.109-1.795,0.055-2.592-0.168c-0.799-0.222-1.502-0.59-2.112-1.103c-0.611-0.513-1.111-1.156-1.501-1.929
		c-0.393-0.771-0.645-1.653-0.762-2.643c-0.119-1.001-0.08-1.927,0.117-2.775c0.198-0.846,0.535-1.59,1.011-2.225
		c0.472-0.636,1.071-1.152,1.797-1.549C50.393,94.565,51.221,94.312,52.151,94.202 M49.82,101.146
		c0.069,0.59,0.204,1.114,0.402,1.574c0.199,0.461,0.452,0.85,0.766,1.164c0.312,0.316,0.67,0.545,1.076,0.688
		c0.405,0.144,0.851,0.187,1.333,0.13c0.495-0.06,0.925-0.208,1.29-0.45c0.367-0.24,0.661-0.55,0.885-0.93
		c0.226-0.379,0.375-0.817,0.453-1.317c0.078-0.498,0.085-1.03,0.019-1.597c-0.068-0.565-0.199-1.078-0.391-1.54
		c-0.191-0.461-0.44-0.853-0.75-1.175c-0.306-0.321-0.665-0.558-1.077-0.705c-0.411-0.149-0.87-0.193-1.377-0.133
		c-0.483,0.058-0.902,0.203-1.258,0.437c-0.354,0.233-0.646,0.54-0.877,0.919c-0.229,0.38-0.387,0.82-0.47,1.32
		C49.759,100.03,49.753,100.567,49.82,101.146"/>
	<path fill="#FFFFFF" d="M66.008,92.844c0.436-0.052,0.798,0.024,1.084,0.229s0.456,0.514,0.506,0.926
		c0.049,0.412-0.045,0.752-0.275,1.019s-0.564,0.425-1.001,0.478l-1.661,0.197l1.018,8.572c0.056,0.46-0.034,0.835-0.27,1.125
		c-0.235,0.291-0.563,0.461-0.988,0.512c-0.424,0.051-0.783-0.037-1.08-0.266c-0.295-0.229-0.471-0.57-0.523-1.031l-1.019-8.572
		l-1.661,0.197c-0.438,0.051-0.799-0.025-1.086-0.229c-0.287-0.205-0.455-0.513-0.505-0.927c-0.049-0.412,0.042-0.752,0.274-1.019
		s0.564-0.425,1.001-0.478L66.008,92.844z"/>
	<path fill="#FFFFFF" d="M69.195,92.357c0.423-0.05,0.783,0.039,1.078,0.267c0.297,0.229,0.473,0.571,0.526,1.03l0.422,3.554
		l3.404-4.705c0.234-0.328,0.44-0.559,0.616-0.692c0.176-0.136,0.396-0.218,0.67-0.25c0.165-0.021,0.336-0.001,0.516,0.055
		c0.181,0.058,0.345,0.142,0.497,0.255c0.151,0.114,0.281,0.247,0.388,0.403c0.109,0.153,0.172,0.319,0.194,0.496
		c0.024,0.212-0.012,0.431-0.111,0.657c-0.098,0.228-0.205,0.414-0.318,0.559l-3.003,3.834l4.59,3.936
		c0.344,0.293,0.537,0.611,0.578,0.953c0.049,0.414-0.053,0.769-0.305,1.066c-0.251,0.299-0.595,0.475-1.029,0.525
		c-0.096,0.013-0.195,0.016-0.305,0.011c-0.107-0.005-0.231-0.039-0.371-0.099c-0.139-0.063-0.309-0.164-0.512-0.309
		c-0.202-0.143-0.443-0.341-0.723-0.595l-4.529-4.015l0.502,4.225c0.055,0.459-0.035,0.835-0.27,1.125
		c-0.235,0.29-0.564,0.461-0.986,0.511c-0.425,0.05-0.786-0.038-1.082-0.267c-0.296-0.227-0.471-0.57-0.526-1.03l-1.171-9.862
		c-0.053-0.459,0.036-0.834,0.271-1.125C68.44,92.579,68.771,92.407,69.195,92.357"/>
	<path fill="#FFFFFF" d="M83.276,90.794c0.519-0.063,1.042-0.031,1.57,0.091c0.529,0.123,1.015,0.335,1.455,0.636
		c0.443,0.299,0.818,0.693,1.127,1.183s0.503,1.069,0.583,1.741c0.082,0.695,0.06,1.326-0.072,1.891
		c-0.13,0.564-0.354,1.055-0.676,1.469c-0.321,0.414-0.722,0.752-1.207,1.012c-0.482,0.262-1.042,0.43-1.678,0.506l-2.244,0.266
		l0.318,2.688c0.055,0.459-0.035,0.834-0.271,1.125c-0.232,0.291-0.563,0.461-0.986,0.511c-0.424,0.051-0.785-0.038-1.08-0.265
		c-0.297-0.229-0.472-0.572-0.525-1.031l-1.167-9.828c-0.047-0.4,0.05-0.75,0.297-1.049c0.245-0.297,0.557-0.469,0.934-0.514
		L83.276,90.794z M83.406,96.854c0.54-0.063,0.967-0.285,1.272-0.662c0.309-0.377,0.435-0.801,0.379-1.272
		c-0.067-0.565-0.29-0.976-0.667-1.229c-0.376-0.254-0.835-0.349-1.377-0.284l-1.59,0.188l0.408,3.447L83.406,96.854z"/>
	<path fill="#FFFFFF" d="M89.823,89.909c0.422-0.051,0.783,0.039,1.078,0.267c0.297,0.228,0.472,0.571,0.525,1.031l0.39,3.271
		l2.509-0.299c0.614-0.072,1.184-0.045,1.713,0.084s0.995,0.342,1.402,0.639c0.405,0.3,0.733,0.674,0.984,1.121
		c0.25,0.449,0.41,0.961,0.479,1.539c0.074,0.625,0.04,1.198-0.102,1.724c-0.141,0.524-0.376,0.985-0.705,1.383
		c-0.328,0.397-0.746,0.726-1.255,0.981c-0.508,0.259-1.09,0.426-1.75,0.504l-3.801,0.451c-0.377,0.045-0.72-0.049-1.028-0.281
		s-0.485-0.549-0.533-0.949l-1.166-9.828c-0.056-0.459,0.035-0.834,0.27-1.125C89.068,90.131,89.398,89.959,89.823,89.909
		 M94.438,99.649c0.494-0.058,0.885-0.227,1.168-0.506c0.283-0.277,0.399-0.636,0.348-1.072c-0.058-0.493-0.257-0.829-0.594-1.004
		c-0.338-0.174-0.754-0.233-1.249-0.174l-1.98,0.234l0.327,2.757L94.438,99.649z M100.303,88.665c0.425-0.05,0.784,0.039,1.08,0.268
		c0.297,0.228,0.473,0.57,0.526,1.029l1.171,9.864c0.055,0.459-0.035,0.835-0.27,1.125c-0.235,0.291-0.565,0.461-0.988,0.511
		c-0.425,0.051-0.784-0.038-1.081-0.266c-0.295-0.228-0.47-0.571-0.525-1.031l-1.171-9.863c-0.054-0.459,0.035-0.834,0.271-1.125
		C99.55,88.888,99.878,88.716,100.303,88.665"/>
	<path fill="#FFFFFF" d="M109.701,87.657c0.437-0.052,0.799,0.025,1.084,0.229c0.287,0.206,0.457,0.515,0.507,0.926
		c0.049,0.413-0.044,0.753-0.275,1.019c-0.231,0.268-0.565,0.426-1.001,0.478l-1.662,0.197l1.018,8.573
		c0.056,0.459-0.034,0.834-0.269,1.125c-0.235,0.291-0.563,0.461-0.988,0.512c-0.424,0.05-0.784-0.038-1.08-0.266
		c-0.296-0.229-0.471-0.571-0.524-1.031l-1.019-8.573l-1.661,0.196c-0.438,0.053-0.798-0.023-1.084-0.229
		c-0.288-0.205-0.457-0.513-0.506-0.927c-0.049-0.412,0.042-0.751,0.274-1.019c0.231-0.266,0.563-0.424,1.001-0.477L109.701,87.657z
		"/>
	<path fill="#FFFFFF" d="M117.304,86.47c0.932-0.111,1.796-0.056,2.593,0.166c0.798,0.223,1.501,0.588,2.109,1.094
		c0.611,0.508,1.111,1.146,1.5,1.92c0.392,0.771,0.647,1.658,0.766,2.66c0.115,0.979,0.076,1.888-0.114,2.729
		c-0.194,0.842-0.525,1.583-0.993,2.225c-0.466,0.642-1.063,1.166-1.784,1.574s-1.561,0.669-2.515,0.782
		c-0.932,0.11-1.795,0.056-2.591-0.167c-0.798-0.223-1.503-0.59-2.113-1.104c-0.61-0.513-1.111-1.155-1.501-1.928
		c-0.391-0.771-0.645-1.654-0.762-2.643c-0.119-1.001-0.08-1.926,0.117-2.775c0.199-0.847,0.535-1.59,1.011-2.225
		c0.472-0.637,1.071-1.152,1.797-1.549C115.546,86.832,116.373,86.579,117.304,86.47 M114.973,93.413
		c0.07,0.589,0.204,1.114,0.403,1.574c0.198,0.461,0.452,0.849,0.765,1.164c0.313,0.316,0.672,0.545,1.077,0.688
		c0.404,0.143,0.85,0.186,1.332,0.129c0.495-0.059,0.925-0.207,1.29-0.449c0.367-0.24,0.661-0.551,0.885-0.93
		c0.226-0.379,0.377-0.818,0.453-1.318c0.078-0.498,0.085-1.03,0.019-1.596c-0.067-0.566-0.198-1.078-0.391-1.541
		c-0.19-0.461-0.44-0.852-0.749-1.175c-0.307-0.321-0.666-0.557-1.078-0.705c-0.411-0.149-0.87-0.192-1.377-0.133
		c-0.482,0.058-0.901,0.203-1.257,0.437s-0.647,0.541-0.877,0.92s-0.387,0.819-0.471,1.319
		C114.912,92.297,114.905,92.835,114.973,93.413"/>
</g>
</svg>
