<?xml version="1.0" encoding="utf-8"?>
<!-- Generator: Adobe Illustrator 16.0.0, SVG Export Plug-In . SVG Version: 6.00 Build 0)  -->
<!DOCTYPE svg PUBLIC "-//W3C//DTD SVG 1.1//EN" "http://www.w3.org/Graphics/SVG/1.1/DTD/svg11.dtd">
<svg version="1.1" id="Слой_1" xmlns="http://www.w3.org/2000/svg" xmlns:xlink="http://www.w3.org/1999/xlink" x="0px" y="0px"
	 width="186px" height="186px" viewBox="0 0 186 186" enable-background="new 0 0 186 186" xml:space="preserve">
<g>
	<image overflow="visible" opacity="0.3" width="186" height="186" xlink:href="A72BF546.png" >
	</image>
	<path fill="#00AEEF" d="M161.529,85.528c0,41.713-33.816,75.528-75.529,75.528c-41.713,0-75.529-33.815-75.529-75.528
		S44.287,10,86,10C127.713,10,161.529,43.815,161.529,85.528"/>
	<circle fill="none" stroke="#FFFFFF" stroke-width="4" stroke-miterlimit="10" cx="86" cy="85.528" r="75.529"/>
	<path fill="#FFFFFF" d="M104.07,88.967H92.476c-3.312,0-5.993,2.683-5.993,5.993v9.629c0,3.311,2.682,5.994,5.993,5.994h11.594
		c3.31,0,5.994-2.684,5.994-5.994V94.96C110.064,91.65,107.379,88.967,104.07,88.967 M106.132,104.004
		c0,0.926-0.763,1.666-1.674,1.666H92.086c-0.931,0-1.675-0.758-1.675-1.666v-9.44c0-0.926,0.764-1.666,1.675-1.666h12.372
		c0.931,0,1.674,0.759,1.674,1.666V104.004z"/>
	<path fill="#FFFFFF" d="M130.492,72.149c0-0.381-0.092-0.745-0.291-1.072l-13.237-23.252c-0.382-0.672-1.108-1.108-1.891-1.108
		H56.91c-0.782,0-1.51,0.418-1.892,1.108L41.801,71.078c-0.183,0.327-0.291,0.691-0.291,1.072c0,5.213,3.145,9.682,7.636,11.662
		v38.349c0,1.197,0.981,2.178,2.179,2.178h12.057h0.055h16.909H80.4h40.258c1.198,0,2.178-0.98,2.178-2.178V84.084
		c0-0.091,0-0.164-0.017-0.237C127.327,81.868,130.492,77.38,130.492,72.149 M57.039,50.647h57.049L124.7,69.316H46.446
		L57.039,50.647z M104.386,73.247c-0.688,3.922-4.121,6.901-8.244,6.901c-4.122,0-7.556-2.979-8.245-6.901H104.386z M83.266,73.247
		c-0.69,3.922-4.122,6.901-8.245,6.901c-4.122,0-7.555-2.979-8.263-6.901H83.266z M45.637,73.247h16.508
		c-0.69,3.922-4.141,6.901-8.263,6.901C49.759,80.166,46.327,77.168,45.637,73.247 M77.639,120.408h-0.018H64.867V96.975
		c0-1.702,1.404-3.095,3.161-3.095h6.451c1.737,0,3.16,1.375,3.16,3.095V120.408z M117.923,119.98v0.428H82.553V96.301
		c0-4.032-3.397-7.333-7.587-7.333h-6.443c-4.172,0-7.587,3.283-7.587,7.333v23.125h-7.86V84.894
		c0.297,0.018,0.552,0.018,0.806,0.018c4.395,0,8.281-2.234,10.569-5.63c2.289,3.396,6.175,5.63,10.57,5.63s8.264-2.234,10.57-5.63
		c2.288,3.396,6.176,5.63,10.552,5.63c4.395,0,8.264-2.234,10.552-5.63c2.288,3.396,6.174,5.63,10.57,5.63
		c0.254,0,0.489-0.018,0.659-0.018V119.98z M117.264,80.147c-4.123,0-7.557-2.979-8.245-6.901h16.508
		C124.819,77.15,121.385,80.147,117.264,80.147"/>
</g>
</svg>
