<?xml version="1.0" encoding="utf-8"?>
<!-- Generator: Adobe Illustrator 16.0.0, SVG Export Plug-In . SVG Version: 6.00 Build 0)  -->
<!DOCTYPE svg PUBLIC "-//W3C//DTD SVG 1.1//EN" "http://www.w3.org/Graphics/SVG/1.1/DTD/svg11.dtd">
<svg version="1.1" id="Слой_1" xmlns="http://www.w3.org/2000/svg" xmlns:xlink="http://www.w3.org/1999/xlink" x="0px" y="0px"
	 width="186px" height="186px" viewBox="0 0 186 186" enable-background="new 0 0 186 186" xml:space="preserve">
<image overflow="visible" opacity="0.3" width="186" height="186" xlink:href="E6BB804B.png" >
</image>
<path fill="#00AEEF" d="M161.973,85.528c0,41.713-33.816,75.528-75.529,75.528s-75.528-33.815-75.528-75.528S44.731,10,86.444,10
	S161.973,43.815,161.973,85.528"/>
<circle fill="none" stroke="#FFFFFF" stroke-width="4" stroke-miterlimit="10" cx="86.444" cy="85.528" r="75.529"/>
<path fill="#FFFFFF" d="M113.666,99.807c-1.081,0-2.038,1.802-2.038,1.802v17.626c0,0.995-0.806,1.803-1.802,1.803H59.431
	c-0.996,0-1.803-0.808-1.803-1.803V51.147c0,0,0.892-1.802,1.973-1.111h37.125l10.271,9.582c0.721,0.721,1.802,0.721,2.523,0
	c0.721-0.721,0.721-1.803,0-2.523L98.708,46.283c-0.36-0.361-1.261-0.246-1.261-0.246H60.035c-2.986,0-5.407,2.421-5.407,5.407
	v68.188c0,2.986,2.421,5.405,5.407,5.405h50.027c3.063,0,5.405-2.341,5.565-5.405v-18.022
	C115.467,100.527,114.748,99.807,113.666,99.807"/>
<path fill="#FFFFFF" d="M129.722,76.886l-7.347-7.18c-0.694-0.678-1.802-0.678-2.494,0l-4.253,4.156V63.839
	c0-0.995-0.807-1.802-1.803-1.802h-12.774c0,0-1.803-0.797-1.423-1.878v-5.407c-0.38-1.081-1.102-1.802-2.182-1.802
	c-1.082,0-1.803,0.721-1.818,1.802v5.407c0.016,3.064,5.423,5.878,5.423,5.878h10.577v11.894l-17.46,17.481
	c-0.36,0.359-0.54,0.721-0.54,1.262v6.561c0,0.996,0.806,1.803,1.802,1.803h7.364c0.55,0,0.917-0.18,1.283-0.537l25.645-25.062
	C130.439,78.738,130.439,77.586,129.722,76.886 M97.628,102.037v-4.686l4.686,4.686H97.628z M122.676,81.064l-2.343-2.343
	c-0.721-0.72-1.803-0.72-2.523,0c-0.72,0.721-0.72,1.802,0,2.523l2.344,2.343l-15.498,15.498L99.969,94.4l14.958-14.958l5.947-5.947
	l4.686,4.686L122.676,81.064z"/>
<path fill="#FFFFFF" d="M65.007,105.037h23.428c1.081,0.176,1.802-0.545,1.802-1.626c0-1.082-0.721-1.802-1.802-2.374H65.007
	c-1.082,0.572-1.802,1.292-1.802,2.374C63.206,104.492,63.925,105.213,65.007,105.037"/>
<path fill="#FFFFFF" d="M65.007,77.037h18.021c1.082-0.659,1.803-1.38,1.803-2.461s-0.721-1.802-1.803-1.539H65.007
	c-1.082-0.263-1.802,0.458-1.802,1.539S63.926,76.378,65.007,77.037"/>
<path fill="#FFFFFF" d="M92.04,80.037H79.424c-1.081-0.054-1.802,0.667-1.802,1.748s0.721,1.802,1.802,2.252H92.04
	c1.082-0.45,1.802-1.171,1.802-2.252S93.122,79.983,92.04,80.037"/>
<path fill="#FFFFFF" d="M99.248,74.576c0-1.081-0.721-1.802-1.802-1.539h-7.208c-1.082-0.263-1.803,0.458-1.803,1.539
	s0.721,1.802,1.803,2.461h7.208C98.527,76.378,99.248,75.657,99.248,74.576"/>
<path fill="#FFFFFF" d="M65.007,91.037h16.219c1.082-0.242,1.802-0.962,1.802-2.044c0-1.081-0.72-1.802-1.802-1.956H65.007
	c-1.082,0.154-1.802,0.875-1.802,1.956C63.206,90.075,63.926,90.795,65.007,91.037"/>
<path fill="#FFFFFF" d="M65.007,98.037h7.208c1.082-0.033,1.803-0.754,1.803-1.835s-0.721-1.802-1.803-2.165h-7.208
	c-1.082,0.363-1.802,1.084-1.802,2.165S63.926,98.004,65.007,98.037"/>
<path fill="#FFFFFF" d="M65.007,84.037h7.208c1.082-0.45,1.803-1.171,1.803-2.252s-0.721-1.802-1.803-1.748h-7.208
	c-1.082-0.054-1.802,0.667-1.802,1.748S63.926,83.587,65.007,84.037"/>
<path fill="#FFFFFF" d="M93.841,88.993c0-1.081-0.721-1.802-1.801-1.956h-3.605c-1.081,0.154-1.801,0.875-1.801,1.956
	c0,1.082,0.72,1.802,1.801,2.044h3.605C93.121,90.795,93.841,90.075,93.841,88.993"/>
<path fill="#FFFFFF" d="M77.623,96.202c0,1.081,0.721,1.802,1.802,1.835h7.209c1.081-0.033,1.802-0.754,1.802-1.835
	s-0.721-1.802-1.802-2.165h-7.209C78.344,94.4,77.623,95.121,77.623,96.202"/>
</svg>
