<?xml version="1.0" encoding="utf-8"?>
<!-- Generator: Adobe Illustrator 16.0.0, SVG Export Plug-In . SVG Version: 6.00 Build 0)  -->
<!DOCTYPE svg PUBLIC "-//W3C//DTD SVG 1.1//EN" "http://www.w3.org/Graphics/SVG/1.1/DTD/svg11.dtd">
<svg version="1.1" id="Слой_1" xmlns="http://www.w3.org/2000/svg" xmlns:xlink="http://www.w3.org/1999/xlink" x="0px" y="0px"
	 width="186px" height="186px" viewBox="0 0 186 186" enable-background="new 0 0 186 186" xml:space="preserve">
<g>
	
		<image overflow="visible" opacity="0.3" width="186" height="186" xlink:href="CD0047A3.png"  transform="matrix(1 0 0 1 0.1025 0.0127)">
	</image>
	<path fill="#00AEEF" d="M161.853,86.484c0,41.713-33.815,75.528-75.528,75.528s-75.528-33.815-75.528-75.528
		s33.815-75.528,75.528-75.528S161.853,44.771,161.853,86.484"/>
	<circle fill="none" stroke="#FFFFFF" stroke-width="4" stroke-miterlimit="10" cx="86.324" cy="86.484" r="75.528"/>
	<path fill="#FFFFFF" d="M65.876,82.924c0,0.78,0.305,1.513,0.856,2.063l1.032,1.032c1.379,1.378,3.209,2.137,5.158,2.137
		c1.95,0,3.782-0.759,5.161-2.137l7.268-7.269c2.879,2.405,6.473,3.714,10.268,3.968h0.007c4.289-0.257,8.325-1.931,11.362-4.969
		c0.571-0.57,0.571-1.494,0-2.063c-0.571-0.57-1.493-0.57-2.064,0c-2.486,2.486-5.79,3.858-9.299,4.681H95.62
		c-3.507-0.821-6.803-2.187-9.282-4.666c-0.571-0.569-1.495-0.569-2.064,0l-8.256,8.255c-1.652,1.653-4.537,1.653-6.19,0
		l-1.032-1.031l17.542-17.542c1.636-1.636,3.19-1.636,5.158-1.636c2.107,0,4.733,0,7.224-2.491l4.126-4.128
		c0.571-0.57,0.571-1.494,0-2.063c-0.569-0.57-1.492-0.57-2.063,0l-4.127,4.128c-1.637,1.637-3.191,1.637-5.16,1.637
		c-2.107,0-4.731,0-7.222,2.49l-17.54,17.54C66.181,81.41,65.876,82.143,65.876,82.924"/>
	<path fill="none" stroke="#FFFFFF" stroke-miterlimit="10" d="M65.876,82.924c0,0.78,0.305,1.513,0.856,2.063l1.032,1.032
		c1.379,1.378,3.209,2.137,5.158,2.137c1.95,0,3.782-0.759,5.161-2.137l7.268-7.269c2.879,2.405,6.473,3.714,10.268,3.968h0.007
		c4.289-0.257,8.325-1.931,11.362-4.969c0.571-0.57,0.571-1.494,0-2.063c-0.571-0.57-1.493-0.57-2.064,0
		c-2.486,2.486-5.79,3.858-9.299,4.681H95.62c-3.507-0.821-6.803-2.187-9.282-4.666c-0.571-0.569-1.495-0.569-2.064,0l-8.256,8.255
		c-1.652,1.653-4.537,1.653-6.19,0l-1.032-1.031l17.542-17.542c1.636-1.636,3.19-1.636,5.158-1.636c2.107,0,4.733,0,7.224-2.491
		l4.126-4.128c0.571-0.57,0.571-1.494,0-2.063c-0.569-0.57-1.492-0.57-2.063,0l-4.127,4.128c-1.637,1.637-3.191,1.637-5.16,1.637
		c-2.107,0-4.731,0-7.222,2.49l-17.54,17.54C66.181,81.41,65.876,82.143,65.876,82.924z"/>
	<path fill="#FFFFFF" d="M55.68,58.718c1.61,0,2.919-1.31,2.919-2.919S57.29,52.88,55.68,52.88c-1.609,0-2.918,1.31-2.918,2.919
		S54.071,58.718,55.68,58.718"/>
	<path fill="none" stroke="#FFFFFF" stroke-miterlimit="10" d="M55.68,58.718c1.61,0,2.919-1.31,2.919-2.919
		S57.29,52.88,55.68,52.88c-1.609,0-2.918,1.31-2.918,2.919S54.071,58.718,55.68,58.718z"/>
	<path fill="#FFFFFF" d="M69.828,63.318l4.126,4.127c0.287,0.286,0.66,0.428,1.032,0.428c0.374,0,0.747-0.142,1.032-0.428
		c0.571-0.569,0.571-1.493,0-2.063l-4.127-4.126c-0.569-0.571-1.493-0.571-2.063,0C69.259,61.824,69.259,62.748,69.828,63.318"/>
	<path fill="none" stroke="#FFFFFF" stroke-miterlimit="10" d="M69.828,63.318l4.126,4.127c0.287,0.286,0.66,0.428,1.032,0.428
		c0.374,0,0.747-0.142,1.032-0.428c0.571-0.569,0.571-1.493,0-2.063l-4.127-4.126c-0.569-0.571-1.493-0.571-2.063,0
		C69.259,61.824,69.259,62.748,69.828,63.318z"/>
	<path fill="#FFFFFF" d="M116.969,52.881c1.608,0,2.918-1.31,2.918-2.919s-1.31-2.919-2.918-2.919s-2.918,1.31-2.918,2.919
		S115.361,52.881,116.969,52.881"/>
	<path fill="none" stroke="#FFFFFF" stroke-miterlimit="10" d="M116.969,52.881c1.608,0,2.918-1.31,2.918-2.919
		s-1.31-2.919-2.918-2.919s-2.918,1.31-2.918,2.919S115.361,52.881,116.969,52.881z"/>
	<path fill="#FFFFFF" d="M120.315,73.737c-2.372,2.372-3.186,6.234-3.972,9.97c-0.698,3.315-1.42,6.746-3.177,8.504l-2.065,2.063
		c-0.569,0.57-0.569,1.494,0,2.063c0.286,0.286,0.66,0.428,1.033,0.428c0.372,0,0.746-0.142,1.032-0.428l2.064-2.063
		c2.369-2.37,3.182-6.231,3.969-9.966c0.699-3.318,1.423-6.749,3.179-8.508c0.571-0.568,0.571-1.492,0-2.063
		C121.808,73.167,120.886,73.167,120.315,73.737"/>
	<path fill="none" stroke="#FFFFFF" stroke-miterlimit="10" d="M120.315,73.737c-2.372,2.372-3.186,6.234-3.972,9.97
		c-0.698,3.315-1.42,6.746-3.177,8.504l-2.065,2.063c-0.569,0.57-0.569,1.494,0,2.063c0.286,0.286,0.66,0.428,1.033,0.428
		c0.372,0,0.746-0.142,1.032-0.428l2.064-2.063c2.369-2.37,3.182-6.231,3.969-9.966c0.699-3.318,1.423-6.749,3.179-8.508
		c0.571-0.568,0.571-1.492,0-2.063C121.808,73.167,120.886,73.167,120.315,73.737z"/>
	<path fill="#FFFFFF" d="M129.675,73.737l-23.776-23.775l4.805-4.806c0.571-0.57,0.571-1.492,0-2.063c-0.57-0.57-1.492-0.57-2.063,0
		l-5.837,5.837c-0.57,0.571-0.57,1.493,0,2.063l24.808,24.808c0.284,0.285,0.658,0.428,1.031,0.428c0.374,0,0.747-0.143,1.032-0.428
		C130.245,75.23,130.245,74.309,129.675,73.737"/>
	<path fill="none" stroke="#FFFFFF" stroke-miterlimit="10" d="M129.675,73.737l-23.776-23.775l4.805-4.806
		c0.571-0.57,0.571-1.492,0-2.063c-0.57-0.57-1.492-0.57-2.063,0l-5.837,5.837c-0.57,0.571-0.57,1.493,0,2.063l24.808,24.808
		c0.284,0.285,0.658,0.428,1.031,0.428c0.374,0,0.747-0.143,1.032-0.428C130.245,75.23,130.245,74.309,129.675,73.737z"/>
	<path fill="#FFFFFF" d="M114.109,104.941c0.02-0.748-0.278-1.477-0.807-2.006L96.656,86.289c-0.57-0.568-1.493-0.568-2.064,0
		c-0.57,0.571-0.57,1.494,0,2.065l16.05,16.049c0.255,0.255,0.421,0.6,0.414,0.959c-0.062,3.439-3.398,4.31-5.114,2.598
		L90.464,92.481c-0.57-0.571-1.494-0.571-2.063,0c-0.571,0.57-0.571,1.494,0,2.063l20.188,20.188
		c0.257,0.256,0.423,0.604,0.413,0.965c-0.091,3.423-3.411,4.291-5.124,2.579L85.306,99.704c-0.571-0.57-1.494-0.57-2.063,0
		c-0.571,0.569-0.571,1.493,0,2.063l16.885,16.885c0.207,0.208,0.361,0.478,0.407,0.767c0.584,3.726-3.175,4.723-4.91,2.984
		l-2.065-2.063h-0.002l-13.412-13.412c-0.571-0.57-1.495-0.57-2.063,0c-0.571,0.569-0.571,1.492,0,2.063l13.413,13.413
		c0.552,0.552,0.855,1.284,0.855,2.065c0,0.779-0.303,1.512-0.855,2.063c-1.135,1.135-2.989,1.137-4.127-0.002l-24.82-24.797
		c-3.784-3.784-4.606-8.555-5.331-12.765c-0.61-3.541-1.186-6.886-3.425-9.124c-0.57-0.571-1.493-0.571-2.063,0
		c-0.571,0.57-0.571,1.491,0,2.063c1.583,1.583,2.061,4.351,2.612,7.557c0.759,4.407,1.704,9.893,6.143,14.332l24.821,24.799
		c1.136,1.137,2.631,1.707,4.127,1.707c1.494-0.002,2.99-0.57,4.127-1.707c0.828-0.83,1.379-1.865,1.6-2.992
		c2.139,1.032,4.925,0.596,6.655-1.137c0.83-0.83,1.378-1.866,1.6-2.992c3.531,1.694,8.432-0.376,8.635-6.183
		c0.026-0.756-0.273-1.494-0.807-2.029l-1.727-1.732C111.923,110.891,114.009,108.686,114.109,104.941"/>
	<path fill="none" stroke="#FFFFFF" stroke-miterlimit="10" d="M114.109,104.941c0.02-0.748-0.278-1.477-0.807-2.006L96.656,86.289
		c-0.57-0.568-1.493-0.568-2.064,0c-0.57,0.571-0.57,1.494,0,2.065l16.05,16.049c0.255,0.255,0.421,0.6,0.414,0.959
		c-0.062,3.439-3.398,4.31-5.114,2.598L90.464,92.481c-0.57-0.571-1.494-0.571-2.063,0c-0.571,0.57-0.571,1.494,0,2.063
		l20.188,20.188c0.257,0.256,0.423,0.604,0.413,0.965c-0.091,3.423-3.411,4.291-5.124,2.579L85.306,99.704
		c-0.571-0.57-1.494-0.57-2.063,0c-0.571,0.569-0.571,1.493,0,2.063l16.885,16.885c0.207,0.208,0.361,0.478,0.407,0.767
		c0.584,3.726-3.175,4.723-4.91,2.984l-2.065-2.063h-0.002l-13.412-13.412c-0.571-0.57-1.495-0.57-2.063,0
		c-0.571,0.569-0.571,1.492,0,2.063l13.413,13.413c0.552,0.552,0.855,1.284,0.855,2.065c0,0.779-0.303,1.512-0.855,2.063
		c-1.135,1.135-2.989,1.137-4.127-0.002l-24.82-24.797c-3.784-3.784-4.606-8.555-5.331-12.765c-0.61-3.541-1.186-6.886-3.425-9.124
		c-0.57-0.571-1.493-0.571-2.063,0c-0.571,0.57-0.571,1.491,0,2.063c1.583,1.583,2.061,4.351,2.612,7.557
		c0.759,4.407,1.704,9.893,6.143,14.332l24.821,24.799c1.136,1.137,2.631,1.707,4.127,1.707c1.494-0.002,2.99-0.57,4.127-1.707
		c0.828-0.83,1.379-1.865,1.6-2.992c2.139,1.032,4.925,0.596,6.655-1.137c0.83-0.83,1.378-1.866,1.6-2.992
		c3.531,1.694,8.432-0.376,8.635-6.183c0.026-0.756-0.273-1.494-0.807-2.029l-1.727-1.732
		C111.923,110.891,114.009,108.686,114.109,104.941z"/>
	<path fill="#FFFFFF" d="M69.845,54.768l-8.755-8.756c-0.571-0.571-1.493-0.571-2.064,0c-0.571,0.57-0.571,1.493,0,2.063
		l7.724,7.724L42.974,79.574c-0.57,0.571-0.57,1.493,0,2.063c0.285,0.285,0.659,0.428,1.032,0.428c0.374,0,0.747-0.143,1.032-0.428
		l24.807-24.807C70.416,56.26,70.416,55.338,69.845,54.768"/>
	<path fill="none" stroke="#FFFFFF" stroke-miterlimit="10" d="M69.845,54.768l-8.755-8.756c-0.571-0.571-1.493-0.571-2.064,0
		c-0.571,0.57-0.571,1.493,0,2.063l7.724,7.724L42.974,79.574c-0.57,0.571-0.57,1.493,0,2.063c0.285,0.285,0.659,0.428,1.032,0.428
		c0.374,0,0.747-0.143,1.032-0.428l24.807-24.807C70.416,56.26,70.416,55.338,69.845,54.768z"/>
	<path fill="#FFFFFF" d="M78.437,127.032c-0.813,0.427-2.201,0.478-3.451-0.771c-1.251-1.251-1.24-2.705-0.835-3.339
		c0.403-0.628,0.269-1.456-0.314-1.925c-0.579-0.469-1.418-0.425-1.946,0.105c-1.14,1.138-2.993,1.137-4.128,0
		c-1.137-1.139-1.137-2.99,0-4.129c0.286-0.284,0.427-0.658,0.427-1.031c0-0.374-0.142-0.746-0.427-1.032
		c-0.57-0.568-1.493-0.568-2.064,0l-1.032,1.032c-1.136,1.138-2.99,1.138-4.126,0c-1.137-1.14-1.137-2.99,0-4.127l1.031-1.031
		c0.52-0.519,0.573-1.342,0.126-1.922c-0.447-0.581-1.257-0.74-1.888-0.374c-0.794,0.458-2.191,0.404-3.396-0.8
		c-1.281-1.281-1.275-2.701-0.862-3.299c0.458-0.663,0.29-1.572-0.372-2.03c-0.664-0.46-1.572-0.292-2.03,0.372
		c-1.181,1.71-1.149,4.671,1.201,7.021c0.925,0.924,1.932,1.476,2.924,1.739c-0.333,0.741-0.508,1.552-0.508,2.388
		c0,1.559,0.608,3.025,1.711,4.127c1.497,1.499,3.614,2.011,5.536,1.536c0.113,1.322,0.675,2.614,1.685,3.624
		c1.452,1.45,3.481,1.976,5.351,1.578c0.181,1.209,0.766,2.474,1.872,3.582c1.35,1.348,2.926,1.888,4.365,1.888
		c0.924,0,1.791-0.224,2.504-0.597c0.714-0.374,0.99-1.255,0.615-1.97C80.032,126.935,79.148,126.657,78.437,127.032"/>
	<path fill="none" stroke="#FFFFFF" stroke-miterlimit="10" d="M78.437,127.032c-0.813,0.427-2.201,0.478-3.451-0.771
		c-1.251-1.251-1.24-2.705-0.835-3.339c0.403-0.628,0.269-1.456-0.314-1.925c-0.579-0.469-1.418-0.425-1.946,0.105
		c-1.14,1.138-2.993,1.137-4.128,0c-1.137-1.139-1.137-2.99,0-4.129c0.286-0.284,0.427-0.658,0.427-1.031
		c0-0.374-0.142-0.746-0.427-1.032c-0.57-0.568-1.493-0.568-2.064,0l-1.032,1.032c-1.136,1.138-2.99,1.138-4.126,0
		c-1.137-1.14-1.137-2.99,0-4.127l1.031-1.031c0.52-0.519,0.573-1.342,0.126-1.922c-0.447-0.581-1.257-0.74-1.888-0.374
		c-0.794,0.458-2.191,0.404-3.396-0.8c-1.281-1.281-1.275-2.701-0.862-3.299c0.458-0.663,0.29-1.572-0.372-2.03
		c-0.664-0.46-1.572-0.292-2.03,0.372c-1.181,1.71-1.149,4.671,1.201,7.021c0.925,0.924,1.932,1.476,2.924,1.739
		c-0.333,0.741-0.508,1.552-0.508,2.388c0,1.559,0.608,3.025,1.711,4.127c1.497,1.499,3.614,2.011,5.536,1.536
		c0.113,1.322,0.675,2.614,1.685,3.624c1.452,1.45,3.481,1.976,5.351,1.578c0.181,1.209,0.766,2.474,1.872,3.582
		c1.35,1.348,2.926,1.888,4.365,1.888c0.924,0,1.791-0.224,2.504-0.597c0.714-0.374,0.99-1.255,0.615-1.97
		C80.032,126.935,79.148,126.657,78.437,127.032z"/>
	<rect x="-370.728" y="-206.987" fill="none" width="1367.8" height="408"/>
</g>
</svg>
