<?xml version="1.0" encoding="utf-8"?>
<!-- Generator: Adobe Illustrator 16.0.0, SVG Export Plug-In . SVG Version: 6.00 Build 0)  -->
<!DOCTYPE svg PUBLIC "-//W3C//DTD SVG 1.1//EN" "http://www.w3.org/Graphics/SVG/1.1/DTD/svg11.dtd">
<svg version="1.1" id="Слой_1" xmlns="http://www.w3.org/2000/svg" xmlns:xlink="http://www.w3.org/1999/xlink" x="0px" y="0px"
	 width="186px" height="186px" viewBox="0 0 186 186" enable-background="new 0 0 186 186" xml:space="preserve">
<g>
	<image overflow="visible" opacity="0.3" width="186" height="186" xlink:href="E47A90D5.png" >
	</image>
	<path fill="#00AEEF" d="M161.307,86.472c0,41.713-33.815,75.528-75.528,75.528s-75.529-33.815-75.529-75.528
		s33.816-75.528,75.529-75.528S161.307,44.759,161.307,86.472"/>
	<circle fill="none" stroke="#FFFFFF" stroke-width="4" stroke-miterlimit="10" cx="85.778" cy="86.472" r="75.529"/>
	<path fill="#FFFFFF" d="M117.191,107.539l-11.661-5.02c-0.188-1.362-0.943-2.599-2.122-3.394
		c4.538-1.365,14.105-4.957,14.105-10.979c0-8.924-1.055-18.128-3.133-27.354c-1.453-6.451-5.111-12.277-10.3-16.403
		C98.902,40.269,92.402,38,85.777,38s-13.126,2.269-18.303,6.389c-5.189,4.126-8.847,9.952-10.299,16.403
		c-2.079,9.227-3.135,18.431-3.135,27.354c0,6.022,9.567,9.614,14.105,10.979c-1.178,0.795-1.933,2.031-2.121,3.394l-11.661,5.02
		c-4.263,1.836-7.025,6.032-7.025,10.674v11.811c0,2.717,2.202,4.92,4.921,4.92h67.037c2.718,0,4.92-2.203,4.92-4.92v-11.811
		C124.217,113.571,121.454,109.375,117.191,107.539 M57.148,88.124c0-8.693,1.027-17.664,3.054-26.666
		c1.296-5.755,4.56-10.952,9.188-14.636c4.622-3.679,10.425-5.705,16.339-5.705c5.915,0,11.717,2.026,16.339,5.705
		c4.628,3.684,7.89,8.881,9.188,14.636c2.025,9.002,3.055,17.973,3.055,26.666c0,1.929-2.337,4.055-6.579,5.986
		c-1.885,0.857-3.789,1.511-5.18,1.94c4.038-5.103,6.523-12.031,6.523-19.652c0-2.969-0.412-5.971-1.223-8.923
		c-0.175-0.639-0.733-1.099-1.394-1.149c-13.56-1.05-31.688-5.641-36.339-8.081c-0.227-0.119-0.487-0.176-0.736-0.18l-0.644,0.003
		c-0.527,0.004-1.016,0.271-1.304,0.713c-3.306,5.065-5.053,11.157-5.053,17.617c0,7.629,2.49,14.563,6.535,19.667
		C64.103,94.584,57.148,91.503,57.148,88.124 M101.105,71.836c-4.301-1.28-8.848-1.273-13.147,0.019
		c-0.649,0.196-1.083,0.814-1.083,1.493v0.481c-0.511-0.199-1.065-0.31-1.646-0.31c-0.581,0-1.137,0.11-1.648,0.31v-0.507
		c0-0.667-0.416-1.278-1.05-1.481c-3.978-1.278-8.184-1.279-12.163-0.005c-0.633,0.202-1.063,0.812-1.063,1.501v0.104h-4.994
		c0.449-4.245,1.779-8.235,3.923-11.722c7.67,3.441,26.606,7.007,36.831,7.93c0.31,1.26,0.536,2.526,0.68,3.792h-3.493v-0.104
		C102.251,72.647,101.786,72.038,101.105,71.836 M98.956,74.539v5.22c-2.894,0.697-5.891,0.697-8.785,0v-5.22
		C93.065,73.842,96.063,73.842,98.956,74.539 M81.385,74.539v5.22c-2.896,0.697-5.892,0.697-8.786,0v-5.22
		C75.492,73.842,78.489,73.842,81.385,74.539 M69.305,76.736v4.236c0,0.679,0.432,1.299,1.083,1.494
		c2.159,0.648,4.382,0.974,6.604,0.974c2.224,0,4.446-0.325,6.605-0.974c0.649-0.195,1.083-0.815,1.083-1.494v-2.545
		c0,0,0.066-1.78,1.049-1.78c0.98,0,1.146,1.78,1.146,1.78v2.545c0,0.679,0.435,1.299,1.084,1.494
		c2.159,0.648,4.383,0.974,6.605,0.974c2.222,0,4.444-0.325,6.604-0.974c0.65-0.195,1.083-0.815,1.083-1.494v-4.236h3.681
		c0.001,0,0.001,0.001,0.002,0.001c0.046,13.96-9.347,25.334-20.898,25.334S64.092,90.697,64.138,76.737
		c0.001,0,0.001-0.001,0.002-0.001H69.305z M61.005,125.425l2.479,6.224h-11.07c-0.982,0-1.779-0.796-1.779-1.779v-11.813
		c0-3.386,2.016-6.447,5.126-7.787l3.907-1.684l-2.066,7.464c-0.114,0.407-0.058,0.844,0.156,1.21
		c0.214,0.365,0.564,0.63,0.977,0.732l4.8,1.2l-2.474,4.948C60.858,124.542,60.84,125.009,61.005,125.425 M66.679,131.648
		l-2.683-6.731l3.035-6.07c0.214-0.427,0.222-0.927,0.023-1.358c-0.199-0.434-0.584-0.752-1.046-0.868l-5.139-1.284l2.313-8.344
		l3.017-1.3l1.172,10.559c0.067,0.587,0.143,1.251,0.919,1.63c0.219,0.105,0.452,0.158,0.688,0.158c0.294,0,0.586-0.082,0.841-0.244
		c1.625-1.03,3.136-1.875,4.46-2.556l1.368,16.409H66.679z M70.265,114.337c-0.246-2.212-0.651-5.858-1.176-10.599
		c0-0.005-0.002-0.01-0.002-0.016l0,0c-0.072-0.658,0.228-1.298,0.782-1.669l1.85-1.232l5.126,10.251
		C75.375,111.672,73.056,112.72,70.265,114.337 M84.68,131.648h-5.36l-1.487-17.846c0.522-0.226,0.961-0.403,1.309-0.538
		l5.539,5.616V131.648z M80.32,111.003l-4.196-8.392c2.932,1.612,6.184,2.512,9.604,2.512s6.672-0.899,9.603-2.512l-4.307,8.614
		c-0.028,0.056-0.051,0.112-0.072,0.169l-5.123,5.193L80.32,111.003z M92.235,131.648h-5.36v-12.563l5.687-5.764
		c0.322,0.127,0.711,0.285,1.162,0.48L92.235,131.648z M99.737,100.821l1.85,1.233c0.557,0.37,0.855,1.01,0.782,1.668
		c-0.001,0.006-0.001,0.011-0.002,0.016c-0.524,4.74-0.929,8.387-1.175,10.599c-2.792-1.616-5.112-2.665-6.581-3.264L99.737,100.821
		z M104.729,131.648h-8.918l1.367-16.409c1.323,0.681,2.835,1.525,4.461,2.556c0.255,0.162,0.548,0.244,0.841,0.244
		c0.234,0,0.469-0.053,0.687-0.158c0.777-0.379,0.853-1.043,0.918-1.63l1.174-10.559l2.919,1.258l2.396,8.389l-5.125,1.281
		c-0.462,0.115-0.846,0.435-1.046,0.867c-0.199,0.433-0.189,0.933,0.023,1.358l3.032,6.066L104.729,131.648z M120.922,129.869
		c0,0.983-0.797,1.779-1.779,1.779h-11.114l2.52-6.215c0.169-0.419,0.149-0.889-0.052-1.293l-2.474-4.948l4.8-1.2
		c0.413-0.104,0.768-0.37,0.98-0.738s0.266-0.808,0.148-1.217l-2.137-7.482l3.982,1.715c3.109,1.34,5.125,4.401,5.125,7.787V129.869
		z"/>
	<path fill="none" stroke="#FFFFFF" stroke-width="0.5" stroke-miterlimit="10" d="M117.191,107.539l-11.661-5.02
		c-0.188-1.362-0.943-2.599-2.122-3.394c4.538-1.365,14.105-4.957,14.105-10.979c0-8.924-1.055-18.128-3.133-27.354
		c-1.453-6.451-5.111-12.277-10.3-16.403C98.902,40.269,92.402,38,85.777,38s-13.126,2.269-18.303,6.389
		c-5.189,4.126-8.847,9.952-10.299,16.403c-2.079,9.227-3.135,18.431-3.135,27.354c0,6.022,9.567,9.614,14.105,10.979
		c-1.178,0.795-1.933,2.031-2.121,3.394l-11.661,5.02c-4.263,1.836-7.025,6.032-7.025,10.674v11.811c0,2.717,2.202,4.92,4.921,4.92
		h67.037c2.718,0,4.92-2.203,4.92-4.92v-11.811C124.217,113.571,121.454,109.375,117.191,107.539z M57.148,88.124
		c0-8.693,1.027-17.664,3.054-26.666c1.296-5.755,4.56-10.952,9.188-14.636c4.622-3.679,10.425-5.705,16.339-5.705
		c5.915,0,11.717,2.026,16.339,5.705c4.628,3.684,7.89,8.881,9.188,14.636c2.025,9.002,3.055,17.973,3.055,26.666
		c0,1.929-2.337,4.055-6.579,5.986c-1.885,0.857-3.789,1.511-5.18,1.94c4.038-5.103,6.523-12.031,6.523-19.652
		c0-2.969-0.412-5.971-1.223-8.923c-0.175-0.639-0.733-1.099-1.394-1.149c-13.56-1.05-31.688-5.641-36.339-8.081
		c-0.227-0.119-0.487-0.176-0.736-0.18l-0.644,0.003c-0.527,0.004-1.016,0.271-1.304,0.713c-3.306,5.065-5.053,11.157-5.053,17.617
		c0,7.629,2.49,14.563,6.535,19.667C64.103,94.584,57.148,91.503,57.148,88.124z M101.105,71.836
		c-4.301-1.28-8.848-1.273-13.147,0.019c-0.649,0.196-1.083,0.814-1.083,1.493v0.481c-0.511-0.199-1.065-0.31-1.646-0.31
		c-0.581,0-1.137,0.11-1.648,0.31v-0.507c0-0.667-0.416-1.278-1.05-1.481c-3.978-1.278-8.184-1.279-12.163-0.005
		c-0.633,0.202-1.063,0.812-1.063,1.501v0.104h-4.994c0.449-4.245,1.779-8.235,3.923-11.722c7.67,3.441,26.606,7.007,36.831,7.93
		c0.31,1.26,0.536,2.526,0.68,3.792h-3.493v-0.104C102.251,72.647,101.786,72.038,101.105,71.836z M98.956,74.539v5.22
		c-2.894,0.697-5.891,0.697-8.785,0v-5.22C93.065,73.842,96.063,73.842,98.956,74.539z M81.385,74.539v5.22
		c-2.896,0.697-5.892,0.697-8.786,0v-5.22C75.492,73.842,78.489,73.842,81.385,74.539z M69.305,76.736v4.236
		c0,0.679,0.432,1.299,1.083,1.494c2.159,0.648,4.382,0.974,6.604,0.974c2.224,0,4.446-0.325,6.605-0.974
		c0.649-0.195,1.083-0.815,1.083-1.494v-2.545c0,0,0.066-1.78,1.049-1.78c0.98,0,1.146,1.78,1.146,1.78v2.545
		c0,0.679,0.435,1.299,1.084,1.494c2.159,0.648,4.383,0.974,6.605,0.974c2.222,0,4.444-0.325,6.604-0.974
		c0.65-0.195,1.083-0.815,1.083-1.494v-4.236h3.681c0.001,0,0.001,0.001,0.002,0.001c0.046,13.96-9.347,25.334-20.898,25.334
		S64.092,90.697,64.138,76.737c0.001,0,0.001-0.001,0.002-0.001H69.305z M61.005,125.425l2.479,6.224h-11.07
		c-0.982,0-1.779-0.796-1.779-1.779v-11.813c0-3.386,2.016-6.447,5.126-7.787l3.907-1.684l-2.066,7.464
		c-0.114,0.407-0.058,0.844,0.156,1.21c0.214,0.365,0.564,0.63,0.977,0.732l4.8,1.2l-2.474,4.948
		C60.858,124.542,60.84,125.009,61.005,125.425z M66.679,131.648l-2.683-6.731l3.035-6.07c0.214-0.427,0.222-0.927,0.023-1.358
		c-0.199-0.434-0.584-0.752-1.046-0.868l-5.139-1.284l2.313-8.344l3.017-1.3l1.172,10.559c0.067,0.587,0.143,1.251,0.919,1.63
		c0.219,0.105,0.452,0.158,0.688,0.158c0.294,0,0.586-0.082,0.841-0.244c1.625-1.03,3.136-1.875,4.46-2.556l1.368,16.409H66.679z
		 M70.265,114.337c-0.246-2.212-0.651-5.858-1.176-10.599c0-0.005-0.002-0.01-0.002-0.016l0,0c-0.072-0.658,0.228-1.298,0.782-1.669
		l1.85-1.232l5.126,10.251C75.375,111.672,73.056,112.72,70.265,114.337z M84.68,131.648h-5.36l-1.487-17.846
		c0.522-0.226,0.961-0.403,1.309-0.538l5.539,5.616V131.648z M80.32,111.003l-4.196-8.392c2.932,1.612,6.184,2.512,9.604,2.512
		s6.672-0.899,9.603-2.512l-4.307,8.614c-0.028,0.056-0.051,0.112-0.072,0.169l-5.123,5.193L80.32,111.003z M92.235,131.648h-5.36
		v-12.563l5.687-5.764c0.322,0.127,0.711,0.285,1.162,0.48L92.235,131.648z M99.737,100.821l1.85,1.233
		c0.557,0.37,0.855,1.01,0.782,1.668c-0.001,0.006-0.001,0.011-0.002,0.016c-0.524,4.74-0.929,8.387-1.175,10.599
		c-2.792-1.616-5.112-2.665-6.581-3.264L99.737,100.821z M104.729,131.648h-8.918l1.367-16.409c1.323,0.681,2.835,1.525,4.461,2.556
		c0.255,0.162,0.548,0.244,0.841,0.244c0.234,0,0.469-0.053,0.687-0.158c0.777-0.379,0.853-1.043,0.918-1.63l1.174-10.559
		l2.919,1.258l2.396,8.389l-5.125,1.281c-0.462,0.115-0.846,0.435-1.046,0.867c-0.199,0.433-0.189,0.933,0.023,1.358l3.032,6.066
		L104.729,131.648z M120.922,129.869c0,0.983-0.797,1.779-1.779,1.779h-11.114l2.52-6.215c0.169-0.419,0.149-0.889-0.052-1.293
		l-2.474-4.948l4.8-1.2c0.413-0.104,0.768-0.37,0.98-0.738s0.266-0.808,0.148-1.217l-2.137-7.482l3.982,1.715
		c3.109,1.34,5.125,4.401,5.125,7.787V129.869z"/>
</g>
</svg>
