<?xml version="1.0" encoding="utf-8"?>
<!-- Generator: Adobe Illustrator 16.0.0, SVG Export Plug-In . SVG Version: 6.00 Build 0)  -->
<!DOCTYPE svg PUBLIC "-//W3C//DTD SVG 1.1//EN" "http://www.w3.org/Graphics/SVG/1.1/DTD/svg11.dtd">
<svg version="1.1" id="Слой_1" xmlns="http://www.w3.org/2000/svg" xmlns:xlink="http://www.w3.org/1999/xlink" x="0px" y="0px"
	 width="92px" height="100px" viewBox="0 0 39.234 42.736" enable-background="new 0 0 39.234 42.736" xml:space="preserve">
<g>
	<defs>
		<rect id="SVGID_1_" width="39.234" height="42.736"/>
	</defs>
	<clipPath id="SVGID_2_">
		<use xlink:href="#SVGID_1_"  overflow="visible"/>
	</clipPath>
	<path clip-path="url(#SVGID_2_)" fill="#8DC63F" d="M2.859,21.011h33.517V8.147H2.859V21.011z M36.912,22.083H2.323
		c-0.296,0-0.536-0.239-0.536-0.536V7.611c0-0.296,0.24-0.536,0.536-0.536h34.589c0.296,0,0.536,0.24,0.536,0.536v13.936
		C37.448,21.843,37.208,22.083,36.912,22.083 M4.285,2.756h0.937l0.262-1.684H4.94L4.285,2.756z M34.013,2.756h0.937l-0.654-1.684
		h-0.544L34.013,2.756z M21.977,24.002h16.186V6.583h-8.029c-0.007,0.001-0.014,0.001-0.02,0H9.122
		c-0.006,0.001-0.013,0.001-0.021,0H1.072v17.419H21.977z M14.372,41.664h2.351v-2.209L14.372,41.664z M17.795,41.664h3.646V25.075
		h-3.646V41.664z M22.512,41.664h2.352l-2.352-2.209V41.664z M26.216,42.736H13.018c-0.219,0-0.417-0.134-0.498-0.339
		c-0.081-0.204-0.029-0.438,0.131-0.588l4.072-3.825V25.075H0.536C0.24,25.075,0,24.834,0,24.539V6.047
		c0-0.296,0.24-0.536,0.536-0.536h7.673L6.396,2.182L6.211,3.374C6.17,3.635,5.945,3.828,5.681,3.828h-2.18
		c-0.177,0-0.342-0.087-0.442-0.234c-0.1-0.146-0.121-0.332-0.057-0.496l1.072-2.756C4.154,0.136,4.352,0,4.573,0h1.526
		c0.05,0,0.1,0.005,0.149,0.018h0.001C6.25,0.019,6.25,0.019,6.251,0.019c0,0,0.001,0,0.001,0.001c0,0,0.001,0,0.002,0
		c0,0,0.001,0,0.002,0c0.001,0.001,0.002,0.001,0.003,0.001s0.002,0.001,0.002,0.001c0.001,0,0.003,0.001,0.004,0.001
		s0.001,0,0.002,0.001c0,0,0.001,0,0.002,0s0.002,0,0.002,0c0.123,0.039,0.232,0.122,0.302,0.241
		c0.003,0.006,0.006,0.011,0.009,0.017l2.848,5.23h20.375l2.849-5.23c0.003-0.006,0.006-0.011,0.009-0.017
		c0.067-0.114,0.17-0.194,0.287-0.235c0,0,0,0,0.001-0.001c0.015-0.005,0.031-0.01,0.048-0.014h0.001
		C33.044,0.004,33.09-0.001,33.136,0h1.525c0.221,0,0.42,0.136,0.5,0.342l1.072,2.756c0.063,0.165,0.042,0.351-0.059,0.497
		c-0.099,0.146-0.265,0.233-0.441,0.233h-2.18c-0.264,0-0.488-0.192-0.529-0.453l-0.186-1.192l-1.813,3.329h7.672
		c0.296,0,0.536,0.24,0.536,0.536v18.491c0,0.296-0.24,0.536-0.536,0.536H22.512v12.909l4.071,3.826
		c0.16,0.149,0.212,0.383,0.131,0.588C26.633,42.602,26.437,42.736,26.216,42.736"/>
</g>
</svg>
