<?xml version="1.0" encoding="utf-8"?>
<!-- Generator: Adobe Illustrator 16.0.0, SVG Export Plug-In . SVG Version: 6.00 Build 0)  -->
<!DOCTYPE svg PUBLIC "-//W3C//DTD SVG 1.1//EN" "http://www.w3.org/Graphics/SVG/1.1/DTD/svg11.dtd">
<svg version="1.1" id="Слой_1" xmlns="http://www.w3.org/2000/svg" xmlns:xlink="http://www.w3.org/1999/xlink" x="0px" y="0px"
	 width="100px" height="100px" viewBox="0 0 39.433 39.432" enable-background="new 0 0 39.433 39.432" xml:space="preserve">
<g>
	<defs>
		<rect id="SVGID_1_" width="39.432" height="39.432"/>
	</defs>
	<clipPath id="SVGID_2_">
		<use xlink:href="#SVGID_1_"  overflow="visible"/>
	</clipPath>
	<path clip-path="url(#SVGID_2_)" fill="#8DC63F" d="M19.716,6.572c0.586,0,1.187,0.303,1.642,0.568
		c0.204,0.119,0.455,0.119,0.659,0c0.457-0.265,1.057-0.568,1.643-0.568c1.812,0,3.286,1.474,3.286,3.286
		c0,3.024-1.193,4.876-1.21,4.903c-0.308,0.478-1.234,1.012-2.076,1.012c-0.848,0-1.574-0.524-1.579-0.527
		c-0.116-0.087-0.254-0.131-0.393-0.131c-0.138,0-0.275,0.044-0.393,0.131c-0.007,0.005-0.732,0.527-1.579,0.527
		c-0.837,0-1.711-0.547-2.109-1.06c-0.013-0.017-0.035-0.042-0.05-0.058c-0.012-0.012-1.127-1.234-1.127-4.797
		C16.43,8.046,17.904,6.572,19.716,6.572 M19.716,17.087c0.829,0,1.55-0.312,1.972-0.543c0.422,0.231,1.144,0.543,1.972,0.543
		c1.224,0,2.592-0.695,3.176-1.607c0.058-0.087,1.425-2.176,1.425-5.622c0-2.537-2.063-4.601-4.601-4.601
		c-0.743,0-1.421,0.273-1.972,0.563c-0.551-0.29-1.229-0.563-1.972-0.563c-2.537,0-4.6,2.064-4.6,4.601
		c0,3.894,1.211,5.407,1.474,5.689C17.184,16.294,18.404,17.087,19.716,17.087"/>
	<path clip-path="url(#SVGID_2_)" fill="#8DC63F" d="M21.124,4.282c0.123,0.205,0.34,0.319,0.564,0.319
		c0.115,0,0.231-0.031,0.338-0.094c0.311-0.187,0.412-0.59,0.225-0.902l-1.972-3.286c-0.187-0.311-0.59-0.412-0.902-0.225
		c-0.311,0.187-0.412,0.59-0.225,0.902L21.124,4.282z"/>
	<path clip-path="url(#SVGID_2_)" fill="#8DC63F" d="M24.313,1.704c0.258-0.257,0.608-0.388,1.045-0.388
		c0.093,0,0.181,0.006,0.258,0.015c0.04,0.354,0.021,0.907-0.374,1.302c-0.257,0.258-0.61,0.389-1.045,0.389
		c-0.093,0-0.18-0.006-0.258-0.015C23.899,2.652,23.917,2.1,24.313,1.704 M23.176,4.187c0.046,0.015,0.465,0.15,1.021,0.15h0.001
		c0.786,0,1.469-0.268,1.975-0.774c1.202-1.203,0.648-2.923,0.623-2.997c-0.064-0.195-0.219-0.349-0.415-0.415
		c-0.047-0.015-0.466-0.15-1.021-0.15c-0.786,0-1.47,0.268-1.976,0.774c-1.203,1.203-0.647,2.923-0.624,2.996
		C22.826,3.968,22.979,4.121,23.176,4.187"/>
	<path clip-path="url(#SVGID_2_)" fill="#8DC63F" d="M37.46,18.402H5.915c-1.087,0-1.971,0.885-1.971,1.972v2.627
		c0,0.363,0.294,0.658,0.657,0.658c0.363,0,0.657-0.295,0.657-0.658v-2.627c0-0.362,0.295-0.658,0.657-0.658h1.972v3.286
		c0,0.363,0.294,0.658,0.657,0.658c0.363,0,0.657-0.295,0.657-0.658v-3.286h17.088v3.286c0,0.363,0.294,0.658,0.656,0.658
		c0.363,0,0.658-0.295,0.658-0.658v-3.286h6.572v3.286c0,0.363,0.294,0.658,0.656,0.658c0.363,0,0.657-0.295,0.657-0.658v-3.286
		h1.972c0.362,0,0.657,0.296,0.657,0.658v4.6h-1.972c-0.362,0-0.657,0.294-0.657,0.656v5.915h-0.657
		c-0.362,0-0.656,0.294-0.656,0.657s0.294,0.657,0.656,0.657h1.973v4.601c0,0.362-0.295,0.657-0.658,0.657H15.772v-3.286
		c0-0.362-0.294-0.656-0.657-0.656c-0.363,0-0.657,0.294-0.657,0.656v3.286h-1.315v-3.286c0-0.362-0.294-0.656-0.657-0.656
		c-0.362,0-0.657,0.294-0.657,0.656v3.286h-1.314v-3.286c0-0.362-0.295-0.656-0.657-0.656c-0.363,0-0.658,0.294-0.658,0.656v3.286
		H3.285c-0.361,0-0.657-0.295-0.657-0.657v-2.629c0-0.362-0.294-0.656-0.657-0.656c-0.362,0-0.657,0.294-0.657,0.656v2.629
		c0,1.087,0.885,1.972,1.972,1.972h32.86c1.087,0,1.971-0.885,1.971-1.972V32.86c0-0.854-0.677-1.314-1.313-1.314v-5.258h1.313
		c0.639,0,1.315-0.46,1.315-1.313v-4.601C39.433,19.287,38.548,18.402,37.46,18.402"/>
	<path clip-path="url(#SVGID_2_)" fill="#8DC63F" d="M1.314,30.888v-3.943c0-0.374,0.283-0.656,0.658-0.656h4.6v5.258h-4.6
		C1.603,31.546,1.314,31.257,1.314,30.888 M7.886,26.289h9.201v5.258H7.886V26.289z M28.917,26.289h2.629v8.63l-0.95-0.633
		c-0.221-0.147-0.509-0.147-0.729,0l-0.949,0.633V26.289z M25.631,32.86c0.363,0,0.657-0.294,0.657-0.656
		c0-0.363-0.294-0.657-0.657-0.657h-7.229v-5.258h9.201v9.857c0,0.243,0.134,0.465,0.348,0.58c0.212,0.113,0.473,0.102,0.675-0.033
		l1.605-1.07l1.607,1.07c0.111,0.073,0.238,0.11,0.365,0.11c0.105,0,0.213-0.025,0.31-0.077c0.214-0.115,0.348-0.337,0.348-0.58
		v-9.857h0.656c0.363,0,0.658-0.294,0.658-0.657s-0.295-0.657-0.658-0.657H1.972C0.866,24.974,0,25.84,0,26.945v3.943
		c0,1.087,0.885,1.972,1.972,1.972H25.631z"/>
	<path clip-path="url(#SVGID_2_)" fill="#8DC63F" d="M13.801,27.603c-0.363,0-0.657,0.294-0.657,0.656v1.315
		c0,0.362,0.294,0.657,0.657,0.657c0.363,0,0.657-0.295,0.657-0.657v-1.315C14.458,27.897,14.164,27.603,13.801,27.603"/>
	<path clip-path="url(#SVGID_2_)" fill="#8DC63F" d="M11.172,27.603c-0.363,0-0.657,0.294-0.657,0.656v1.315
		c0,0.362,0.294,0.657,0.657,0.657s0.657-0.295,0.657-0.657v-1.315C11.83,27.897,11.535,27.603,11.172,27.603"/>
</g>
</svg>
